<mxfile host="65bd71144e">
    <diagram name="Page-1" id="2YBvvXClWsGukQMizWep">
        <mxGraphModel dx="487" dy="394" grid="1" gridSize="10" guides="1" tooltips="1" connect="1" arrows="1" fold="1" page="1" pageScale="1" pageWidth="1169" pageHeight="827" math="0" shadow="0">
            <root>
                <mxCell id="0"/>
                <mxCell id="1" parent="0"/>
                <mxCell id="gwQ6n7CEZV3wdCFvcfVw-5" value="TUI" style="shape=umlLifeline;perimeter=lifelinePerimeter;whiteSpace=wrap;html=1;container=0;dropTarget=0;collapsible=0;recursiveResize=0;outlineConnect=0;portConstraint=eastwest;newEdgeStyle={&quot;edgeStyle&quot;:&quot;elbowEdgeStyle&quot;,&quot;elbow&quot;:&quot;vertical&quot;,&quot;curved&quot;:0,&quot;rounded&quot;:0};" parent="1" vertex="1">
                    <mxGeometry x="200" y="40" width="80" height="795" as="geometry"/>
                </mxCell>
                <mxCell id="gwQ6n7CEZV3wdCFvcfVw-6" value="" style="html=1;points=[];perimeter=orthogonalPerimeter;outlineConnect=0;targetShapes=umlLifeline;portConstraint=eastwest;newEdgeStyle={&quot;edgeStyle&quot;:&quot;elbowEdgeStyle&quot;,&quot;elbow&quot;:&quot;vertical&quot;,&quot;curved&quot;:0,&quot;rounded&quot;:0};" parent="1" vertex="1">
                    <mxGeometry x="235" y="160" width="10" height="760" as="geometry"/>
                </mxCell>
                <mxCell id="gwQ6n7CEZV3wdCFvcfVw-7" value="&lt;div&gt;&lt;font style=&quot;font-size: 11px;&quot;&gt;ChatController&lt;/font&gt;&lt;/div&gt;" style="shape=umlLifeline;perimeter=lifelinePerimeter;whiteSpace=wrap;html=1;container=0;dropTarget=0;collapsible=0;recursiveResize=0;outlineConnect=0;portConstraint=eastwest;newEdgeStyle={&quot;edgeStyle&quot;:&quot;elbowEdgeStyle&quot;,&quot;elbow&quot;:&quot;vertical&quot;,&quot;curved&quot;:0,&quot;rounded&quot;:0};movable=1;resizable=1;rotatable=1;deletable=1;editable=1;locked=0;connectable=1;" parent="1" vertex="1">
                    <mxGeometry x="320" y="40" width="80" height="880" as="geometry"/>
                </mxCell>
                <mxCell id="gwQ6n7CEZV3wdCFvcfVw-8" value="" style="html=1;points=[];perimeter=orthogonalPerimeter;outlineConnect=0;targetShapes=umlLifeline;portConstraint=eastwest;newEdgeStyle={&quot;edgeStyle&quot;:&quot;elbowEdgeStyle&quot;,&quot;elbow&quot;:&quot;vertical&quot;,&quot;curved&quot;:0,&quot;rounded&quot;:0};" parent="gwQ6n7CEZV3wdCFvcfVw-7" vertex="1">
                    <mxGeometry x="35" y="120" width="10" height="760" as="geometry"/>
                </mxCell>
                <mxCell id="gwQ6n7CEZV3wdCFvcfVw-9" value="&lt;div&gt;&lt;font style=&quot;font-size: 11px;&quot;&gt;BotController&lt;/font&gt;&lt;/div&gt;" style="shape=umlLifeline;perimeter=lifelinePerimeter;whiteSpace=wrap;html=1;container=0;dropTarget=0;collapsible=0;recursiveResize=0;outlineConnect=0;portConstraint=eastwest;newEdgeStyle={&quot;edgeStyle&quot;:&quot;elbowEdgeStyle&quot;,&quot;elbow&quot;:&quot;vertical&quot;,&quot;curved&quot;:0,&quot;rounded&quot;:0};" parent="1" vertex="1">
                    <mxGeometry x="440" y="40" width="80" height="880" as="geometry"/>
                </mxCell>
                <mxCell id="gwQ6n7CEZV3wdCFvcfVw-13" value="&lt;div&gt;BotFactory&lt;/div&gt;" style="shape=umlLifeline;perimeter=lifelinePerimeter;whiteSpace=wrap;html=1;container=0;dropTarget=0;collapsible=0;recursiveResize=0;outlineConnect=0;portConstraint=eastwest;newEdgeStyle={&quot;edgeStyle&quot;:&quot;elbowEdgeStyle&quot;,&quot;elbow&quot;:&quot;vertical&quot;,&quot;curved&quot;:0,&quot;rounded&quot;:0};" parent="1" vertex="1">
                    <mxGeometry x="560" y="40" width="80" height="880" as="geometry"/>
                </mxCell>
                <mxCell id="gwQ6n7CEZV3wdCFvcfVw-16" value="API" style="shape=umlLifeline;perimeter=lifelinePerimeter;whiteSpace=wrap;html=1;container=0;dropTarget=0;collapsible=0;recursiveResize=0;outlineConnect=0;portConstraint=eastwest;newEdgeStyle={&quot;edgeStyle&quot;:&quot;elbowEdgeStyle&quot;,&quot;elbow&quot;:&quot;vertical&quot;,&quot;curved&quot;:0,&quot;rounded&quot;:0};" parent="1" vertex="1">
                    <mxGeometry x="800" y="40" width="80" height="880" as="geometry"/>
                </mxCell>
                <mxCell id="gwQ6n7CEZV3wdCFvcfVw-18" value="DBConnector" style="shape=umlLifeline;perimeter=lifelinePerimeter;whiteSpace=wrap;html=1;container=0;dropTarget=0;collapsible=0;recursiveResize=0;outlineConnect=0;portConstraint=eastwest;newEdgeStyle={&quot;edgeStyle&quot;:&quot;elbowEdgeStyle&quot;,&quot;elbow&quot;:&quot;vertical&quot;,&quot;curved&quot;:0,&quot;rounded&quot;:0};" parent="1" vertex="1">
                    <mxGeometry x="920" y="40" width="80" height="880" as="geometry"/>
                </mxCell>
                <mxCell id="gwQ6n7CEZV3wdCFvcfVw-84" value="" style="html=1;points=[];perimeter=orthogonalPerimeter;outlineConnect=0;targetShapes=umlLifeline;portConstraint=eastwest;newEdgeStyle={&quot;edgeStyle&quot;:&quot;elbowEdgeStyle&quot;,&quot;elbow&quot;:&quot;vertical&quot;,&quot;curved&quot;:0,&quot;rounded&quot;:0};" parent="gwQ6n7CEZV3wdCFvcfVw-18" vertex="1">
                    <mxGeometry x="35" y="670" width="10" height="110" as="geometry"/>
                </mxCell>
                <mxCell id="gwQ6n7CEZV3wdCFvcfVw-19" value="DB" style="shape=umlLifeline;perimeter=lifelinePerimeter;whiteSpace=wrap;html=1;container=0;dropTarget=0;collapsible=0;recursiveResize=0;outlineConnect=0;portConstraint=eastwest;newEdgeStyle={&quot;edgeStyle&quot;:&quot;elbowEdgeStyle&quot;,&quot;elbow&quot;:&quot;vertical&quot;,&quot;curved&quot;:0,&quot;rounded&quot;:0};" parent="1" vertex="1">
                    <mxGeometry x="1040" y="40" width="80" height="890" as="geometry"/>
                </mxCell>
                <mxCell id="gwQ6n7CEZV3wdCFvcfVw-85" value="" style="html=1;points=[];perimeter=orthogonalPerimeter;outlineConnect=0;targetShapes=umlLifeline;portConstraint=eastwest;newEdgeStyle={&quot;edgeStyle&quot;:&quot;elbowEdgeStyle&quot;,&quot;elbow&quot;:&quot;vertical&quot;,&quot;curved&quot;:0,&quot;rounded&quot;:0};" parent="gwQ6n7CEZV3wdCFvcfVw-19" vertex="1">
                    <mxGeometry x="35.5" y="700" width="10" height="70" as="geometry"/>
                </mxCell>
                <mxCell id="gwQ6n7CEZV3wdCFvcfVw-30" value="getUserInput" style="html=1;verticalAlign=bottom;endArrow=none;edgeStyle=elbowEdgeStyle;elbow=vertical;curved=0;rounded=0;startArrow=block;startFill=1;endFill=0;" parent="1" target="gwQ6n7CEZV3wdCFvcfVw-8" edge="1">
                    <mxGeometry relative="1" as="geometry">
                        <mxPoint x="245" y="170" as="sourcePoint"/>
                        <Array as="points">
                            <mxPoint x="285" y="170"/>
                        </Array>
                        <mxPoint x="350" y="170" as="targetPoint"/>
                    </mxGeometry>
                </mxCell>
                <mxCell id="gwQ6n7CEZV3wdCFvcfVw-31" value="getUserInput" style="html=1;verticalAlign=bottom;endArrow=none;edgeStyle=elbowEdgeStyle;elbow=vertical;curved=0;rounded=0;startArrow=block;startFill=1;endFill=0;" parent="1" source="gwQ6n7CEZV3wdCFvcfVw-3" edge="1">
                    <mxGeometry relative="1" as="geometry">
                        <mxPoint x="145" y="180.20000000000005" as="sourcePoint"/>
                        <Array as="points"/>
                        <mxPoint x="235" y="180" as="targetPoint"/>
                    </mxGeometry>
                </mxCell>
                <mxCell id="gwQ6n7CEZV3wdCFvcfVw-76" value="persistChat&lt;br&gt;(user, prompt,&lt;br&gt;chat)" style="html=1;verticalAlign=bottom;endArrow=block;edgeStyle=elbowEdgeStyle;elbow=vertical;curved=0;rounded=0;" parent="1" source="gwQ6n7CEZV3wdCFvcfVw-84" target="gwQ6n7CEZV3wdCFvcfVw-85" edge="1">
                    <mxGeometry x="-0.0015" relative="1" as="geometry">
                        <mxPoint x="970" y="750" as="sourcePoint"/>
                        <Array as="points">
                            <mxPoint x="970" y="750"/>
                        </Array>
                        <mxPoint x="1045" y="750" as="targetPoint"/>
                        <mxPoint as="offset"/>
                    </mxGeometry>
                </mxCell>
                <mxCell id="gwQ6n7CEZV3wdCFvcfVw-81" value="displayMessage: &lt;br&gt;db_output" style="html=1;verticalAlign=bottom;endArrow=none;edgeStyle=elbowEdgeStyle;elbow=vertical;curved=0;rounded=0;startArrow=open;startFill=0;endFill=0;" parent="1" source="gwQ6n7CEZV3wdCFvcfVw-6" target="gwQ6n7CEZV3wdCFvcfVw-8" edge="1">
                    <mxGeometry relative="1" as="geometry">
                        <mxPoint x="250" y="860" as="sourcePoint"/>
                        <Array as="points">
                            <mxPoint x="304.69000000000005" y="860"/>
                        </Array>
                        <mxPoint x="350" y="860" as="targetPoint"/>
                    </mxGeometry>
                </mxCell>
                <mxCell id="gwQ6n7CEZV3wdCFvcfVw-43" value="" style="endArrow=none;html=1;rounded=0;dashed=1;dashPattern=8 8;exitX=0.002;exitY=0.403;exitDx=0;exitDy=0;exitPerimeter=0;entryX=1;entryY=0.404;entryDx=0;entryDy=0;entryPerimeter=0;" parent="1" edge="1">
                    <mxGeometry width="50" height="50" relative="1" as="geometry">
                        <mxPoint x="30.00000000000003" y="320" as="sourcePoint"/>
                        <mxPoint x="1137.7800000000002" y="320.75999999999976" as="targetPoint"/>
                    </mxGeometry>
                </mxCell>
                <mxCell id="gwQ6n7CEZV3wdCFvcfVw-2" value="" style="endArrow=none;dashed=1;html=1;rounded=0;" parent="1" edge="1">
                    <mxGeometry width="50" height="50" relative="1" as="geometry">
                        <mxPoint x="143.90999999999994" y="212.3264705882353" as="sourcePoint"/>
                        <mxPoint x="144" y="111" as="targetPoint"/>
                    </mxGeometry>
                </mxCell>
                <mxCell id="gwQ6n7CEZV3wdCFvcfVw-4" value="User" style="shape=umlActor;verticalLabelPosition=bottom;verticalAlign=top;html=1;outlineConnect=0;" parent="1" vertex="1">
                    <mxGeometry x="129" y="21" width="30" height="61.32" as="geometry"/>
                </mxCell>
                <mxCell id="gwQ6n7CEZV3wdCFvcfVw-3" value="" style="html=1;points=[];perimeter=orthogonalPerimeter;outlineConnect=0;targetShapes=umlLifeline;portConstraint=eastwest;newEdgeStyle={&quot;edgeStyle&quot;:&quot;elbowEdgeStyle&quot;,&quot;elbow&quot;:&quot;vertical&quot;,&quot;curved&quot;:0,&quot;rounded&quot;:0};" parent="1" vertex="1">
                    <mxGeometry x="139" y="160" width="10" height="750" as="geometry"/>
                </mxCell>
                <mxCell id="gwQ6n7CEZV3wdCFvcfVw-41" value="loop" style="shape=umlFrame;whiteSpace=wrap;html=1;pointerEvents=0;" parent="1" vertex="1">
                    <mxGeometry x="19" y="120" width="1130" height="780" as="geometry"/>
                </mxCell>
                <mxCell id="gwQ6n7CEZV3wdCFvcfVw-42" value="[while true]" style="text;html=1;align=center;verticalAlign=middle;whiteSpace=wrap;rounded=0;" parent="1" vertex="1">
                    <mxGeometry x="19" y="150" width="70" height="30" as="geometry"/>
                </mxCell>
                <mxCell id="gwQ6n7CEZV3wdCFvcfVw-36" value="createBot" style="html=1;verticalAlign=bottom;endArrow=block;edgeStyle=elbowEdgeStyle;elbow=vertical;curved=0;rounded=0;" parent="1" target="gwQ6n7CEZV3wdCFvcfVw-28" edge="1">
                    <mxGeometry relative="1" as="geometry">
                        <mxPoint x="490" y="260" as="sourcePoint"/>
                        <Array as="points">
                            <mxPoint x="485" y="260"/>
                        </Array>
                        <mxPoint x="591" y="260" as="targetPoint"/>
                    </mxGeometry>
                </mxCell>
                <mxCell id="gwQ6n7CEZV3wdCFvcfVw-38" value="newBot" style="html=1;verticalAlign=bottom;endArrow=open;edgeStyle=elbowEdgeStyle;elbow=vertical;curved=0;rounded=0;dashed=1;endFill=0;" parent="1" edge="1">
                    <mxGeometry relative="1" as="geometry">
                        <mxPoint x="605" y="280" as="sourcePoint"/>
                        <Array as="points">
                            <mxPoint x="632.5" y="280"/>
                        </Array>
                        <mxPoint x="690" y="280" as="targetPoint"/>
                    </mxGeometry>
                </mxCell>
                <mxCell id="gwQ6n7CEZV3wdCFvcfVw-14" value="Weatherbot" style="shape=umlLifeline;perimeter=lifelinePerimeter;whiteSpace=wrap;html=1;container=0;dropTarget=0;collapsible=0;recursiveResize=0;outlineConnect=0;portConstraint=eastwest;newEdgeStyle={&quot;edgeStyle&quot;:&quot;elbowEdgeStyle&quot;,&quot;elbow&quot;:&quot;vertical&quot;,&quot;curved&quot;:0,&quot;rounded&quot;:0};" parent="1" vertex="1">
                    <mxGeometry x="689" y="260" width="80" height="390" as="geometry"/>
                </mxCell>
                <mxCell id="gwQ6n7CEZV3wdCFvcfVw-60" value="" style="endArrow=none;html=1;rounded=0;dashed=1;dashPattern=8 8;exitX=0.002;exitY=0.403;exitDx=0;exitDy=0;exitPerimeter=0;entryX=1;entryY=0.404;entryDx=0;entryDy=0;entryPerimeter=0;" parent="1" edge="1">
                    <mxGeometry width="50" height="50" relative="1" as="geometry">
                        <mxPoint x="30" y="560" as="sourcePoint"/>
                        <mxPoint x="1137.7800000000002" y="560.7599999999998" as="targetPoint"/>
                    </mxGeometry>
                </mxCell>
                <mxCell id="gwQ6n7CEZV3wdCFvcfVw-32" value="alt" style="shape=umlFrame;whiteSpace=wrap;html=1;pointerEvents=0;" parent="1" vertex="1">
                    <mxGeometry x="30" y="190" width="1109" height="510" as="geometry"/>
                </mxCell>
                <mxCell id="gwQ6n7CEZV3wdCFvcfVw-75" value="persistChat(user, input, output)" style="html=1;verticalAlign=bottom;endArrow=block;edgeStyle=elbowEdgeStyle;elbow=vertical;curved=0;rounded=0;" parent="1" edge="1">
                    <mxGeometry x="-0.0004" relative="1" as="geometry">
                        <mxPoint x="370" y="720" as="sourcePoint"/>
                        <Array as="points">
                            <mxPoint x="365" y="720"/>
                        </Array>
                        <mxPoint x="955" y="720" as="targetPoint"/>
                        <mxPoint as="offset"/>
                    </mxGeometry>
                </mxCell>
                <mxCell id="gwQ6n7CEZV3wdCFvcfVw-77" value="&lt;div&gt;persistChat&lt;br&gt;(...):&lt;/div&gt;&lt;div&gt;db_output&lt;/div&gt;" style="html=1;verticalAlign=bottom;endArrow=none;edgeStyle=elbowEdgeStyle;elbow=vertical;curved=0;rounded=0;dashed=1;startArrow=open;startFill=0;endFill=0;" parent="1" source="gwQ6n7CEZV3wdCFvcfVw-84" edge="1">
                    <mxGeometry x="-0.0015" relative="1" as="geometry">
                        <mxPoint x="1000" y="800" as="sourcePoint"/>
                        <Array as="points">
                            <mxPoint x="1000" y="800"/>
                        </Array>
                        <mxPoint x="1075" y="800" as="targetPoint"/>
                        <mxPoint as="offset"/>
                    </mxGeometry>
                </mxCell>
                <mxCell id="gwQ6n7CEZV3wdCFvcfVw-78" value="persistChat(user, input, output): db_output" style="html=1;verticalAlign=bottom;endArrow=none;edgeStyle=elbowEdgeStyle;elbow=vertical;curved=0;rounded=0;dashed=1;startArrow=open;startFill=0;endFill=0;" parent="1" edge="1">
                    <mxGeometry x="-0.0016" relative="1" as="geometry">
                        <mxPoint x="365" y="810" as="sourcePoint"/>
                        <Array as="points">
                            <mxPoint x="365" y="810"/>
                        </Array>
                        <mxPoint x="955" y="810" as="targetPoint"/>
                        <mxPoint as="offset"/>
                    </mxGeometry>
                </mxCell>
                <mxCell id="gwQ6n7CEZV3wdCFvcfVw-79" value="displayMessage: &lt;br&gt;output" style="html=1;verticalAlign=bottom;endArrow=none;edgeStyle=elbowEdgeStyle;elbow=vertical;curved=0;rounded=0;startArrow=open;startFill=0;endFill=0;" parent="1" source="gwQ6n7CEZV3wdCFvcfVw-6" edge="1">
                    <mxGeometry relative="1" as="geometry">
                        <mxPoint x="250" y="827.07" as="sourcePoint"/>
                        <Array as="points"/>
                        <mxPoint x="355" y="826.9968292682928" as="targetPoint"/>
                    </mxGeometry>
                </mxCell>
                <mxCell id="gwQ6n7CEZV3wdCFvcfVw-80" value="output" style="html=1;verticalAlign=bottom;endArrow=none;edgeStyle=elbowEdgeStyle;elbow=vertical;curved=0;rounded=0;startArrow=open;startFill=0;endFill=0;" parent="1" target="gwQ6n7CEZV3wdCFvcfVw-6" edge="1">
                    <mxGeometry relative="1" as="geometry">
                        <mxPoint x="150" y="840" as="sourcePoint"/>
                        <Array as="points">
                            <mxPoint x="210" y="840"/>
                        </Array>
                        <mxPoint x="230" y="843" as="targetPoint"/>
                    </mxGeometry>
                </mxCell>
                <mxCell id="gwQ6n7CEZV3wdCFvcfVw-82" value="db_output" style="html=1;verticalAlign=bottom;endArrow=none;edgeStyle=elbowEdgeStyle;elbow=vertical;curved=0;rounded=0;startArrow=open;startFill=0;endFill=0;" parent="1" target="gwQ6n7CEZV3wdCFvcfVw-6" edge="1">
                    <mxGeometry relative="1" as="geometry">
                        <mxPoint x="149" y="870" as="sourcePoint"/>
                        <Array as="points">
                            <mxPoint x="208.69000000000005" y="870"/>
                        </Array>
                        <mxPoint x="220" y="870" as="targetPoint"/>
                    </mxGeometry>
                </mxCell>
                <mxCell id="gwQ6n7CEZV3wdCFvcfVw-34" value="getUserInput: &lt;br&gt;&quot;activate bot weatherbot&quot;" style="html=1;verticalAlign=bottom;endArrow=open;dashed=1;endSize=8;edgeStyle=elbowEdgeStyle;elbow=vertical;curved=0;rounded=0;" parent="1" edge="1">
                    <mxGeometry x="0.0559" relative="1" as="geometry">
                        <mxPoint x="234" y="229.9985106382979" as="targetPoint"/>
                        <Array as="points"/>
                        <mxPoint x="150" y="230" as="sourcePoint"/>
                        <mxPoint as="offset"/>
                    </mxGeometry>
                </mxCell>
                <mxCell id="gwQ6n7CEZV3wdCFvcfVw-33" value="getUserInput: &lt;br&gt;&quot;activate bot weatherbot&quot;" style="html=1;verticalAlign=bottom;endArrow=open;dashed=1;endSize=8;edgeStyle=elbowEdgeStyle;elbow=vertical;curved=0;rounded=0;" parent="1" edge="1">
                    <mxGeometry x="0.2667" relative="1" as="geometry">
                        <mxPoint x="355" y="240" as="targetPoint"/>
                        <Array as="points">
                            <mxPoint x="245" y="239.99999999999994"/>
                        </Array>
                        <mxPoint x="285" y="239.99999999999994" as="sourcePoint"/>
                        <mxPoint as="offset"/>
                    </mxGeometry>
                </mxCell>
                <mxCell id="gwQ6n7CEZV3wdCFvcfVw-35" value="createBot(weatherbot)" style="html=1;verticalAlign=bottom;endArrow=block;edgeStyle=elbowEdgeStyle;elbow=vertical;curved=0;rounded=0;" parent="1" edge="1">
                    <mxGeometry x="0.2414" relative="1" as="geometry">
                        <mxPoint x="410" y="250" as="sourcePoint"/>
                        <Array as="points">
                            <mxPoint x="370" y="250"/>
                        </Array>
                        <mxPoint x="475" y="250" as="targetPoint"/>
                        <mxPoint as="offset"/>
                    </mxGeometry>
                </mxCell>
                <mxCell id="gwQ6n7CEZV3wdCFvcfVw-11" value="" style="html=1;points=[];perimeter=orthogonalPerimeter;outlineConnect=0;targetShapes=umlLifeline;portConstraint=eastwest;newEdgeStyle={&quot;edgeStyle&quot;:&quot;elbowEdgeStyle&quot;,&quot;elbow&quot;:&quot;vertical&quot;,&quot;curved&quot;:0,&quot;rounded&quot;:0};" parent="1" vertex="1">
                    <mxGeometry x="475" y="240" width="10" height="70" as="geometry"/>
                </mxCell>
                <mxCell id="gwQ6n7CEZV3wdCFvcfVw-28" value="" style="html=1;points=[];perimeter=orthogonalPerimeter;outlineConnect=0;targetShapes=umlLifeline;portConstraint=eastwest;newEdgeStyle={&quot;edgeStyle&quot;:&quot;elbowEdgeStyle&quot;,&quot;elbow&quot;:&quot;vertical&quot;,&quot;curved&quot;:0,&quot;rounded&quot;:0};" parent="1" vertex="1">
                    <mxGeometry x="595" y="250" width="10" height="50" as="geometry"/>
                </mxCell>
                <mxCell id="gwQ6n7CEZV3wdCFvcfVw-37" value="createBot: Bot" style="html=1;verticalAlign=bottom;endArrow=open;dashed=1;endSize=8;edgeStyle=elbowEdgeStyle;elbow=vertical;curved=0;rounded=0;" parent="1" source="gwQ6n7CEZV3wdCFvcfVw-28" target="gwQ6n7CEZV3wdCFvcfVw-11" edge="1">
                    <mxGeometry relative="1" as="geometry">
                        <mxPoint x="490" y="290" as="targetPoint"/>
                        <Array as="points">
                            <mxPoint x="489" y="290"/>
                        </Array>
                        <mxPoint x="590" y="290" as="sourcePoint"/>
                    </mxGeometry>
                </mxCell>
                <mxCell id="gwQ6n7CEZV3wdCFvcfVw-39" value="createBot: Bot" style="html=1;verticalAlign=bottom;endArrow=open;dashed=1;endSize=8;edgeStyle=elbowEdgeStyle;elbow=vertical;curved=0;rounded=0;" parent="1" edge="1">
                    <mxGeometry relative="1" as="geometry">
                        <mxPoint x="365" y="300" as="targetPoint"/>
                        <Array as="points">
                            <mxPoint x="465" y="300"/>
                        </Array>
                        <mxPoint x="475" y="300" as="sourcePoint"/>
                    </mxGeometry>
                </mxCell>
                <mxCell id="gwQ6n7CEZV3wdCFvcfVw-56" value="" style="html=1;points=[];perimeter=orthogonalPerimeter;outlineConnect=0;targetShapes=umlLifeline;portConstraint=eastwest;newEdgeStyle={&quot;edgeStyle&quot;:&quot;elbowEdgeStyle&quot;,&quot;elbow&quot;:&quot;vertical&quot;,&quot;curved&quot;:0,&quot;rounded&quot;:0};" parent="1" vertex="1">
                    <mxGeometry x="475" y="380" width="10" height="170" as="geometry"/>
                </mxCell>
                <mxCell id="gwQ6n7CEZV3wdCFvcfVw-17" value="" style="html=1;points=[];perimeter=orthogonalPerimeter;outlineConnect=0;targetShapes=umlLifeline;portConstraint=eastwest;newEdgeStyle={&quot;edgeStyle&quot;:&quot;elbowEdgeStyle&quot;,&quot;elbow&quot;:&quot;vertical&quot;,&quot;curved&quot;:0,&quot;rounded&quot;:0};" parent="1" vertex="1">
                    <mxGeometry x="835" y="410" width="10" height="120" as="geometry"/>
                </mxCell>
                <mxCell id="gwQ6n7CEZV3wdCFvcfVw-15" value="" style="html=1;points=[];perimeter=orthogonalPerimeter;outlineConnect=0;targetShapes=umlLifeline;portConstraint=eastwest;newEdgeStyle={&quot;edgeStyle&quot;:&quot;elbowEdgeStyle&quot;,&quot;elbow&quot;:&quot;vertical&quot;,&quot;curved&quot;:0,&quot;rounded&quot;:0};" parent="1" vertex="1">
                    <mxGeometry x="724" y="400" width="10" height="140" as="geometry"/>
                </mxCell>
                <mxCell id="gwQ6n7CEZV3wdCFvcfVw-45" value="getUserInput:&lt;br&gt;&amp;nbsp;&quot;call bot weatherbot&quot;&amp;nbsp;&lt;div&gt;+ City&lt;/div&gt;" style="html=1;verticalAlign=bottom;endArrow=open;dashed=1;endSize=8;edgeStyle=elbowEdgeStyle;elbow=vertical;curved=0;rounded=0;" parent="1" edge="1">
                    <mxGeometry x="0.2308" relative="1" as="geometry">
                        <mxPoint x="235" y="370" as="targetPoint"/>
                        <Array as="points">
                            <mxPoint x="149" y="370"/>
                        </Array>
                        <mxPoint x="189" y="370" as="sourcePoint"/>
                        <mxPoint as="offset"/>
                    </mxGeometry>
                </mxCell>
                <mxCell id="gwQ6n7CEZV3wdCFvcfVw-46" value="getUserInput:&lt;br&gt;&amp;nbsp;&quot;call bot weatherbot&quot;&amp;nbsp;&lt;div&gt;+ City&lt;/div&gt;" style="html=1;verticalAlign=bottom;endArrow=open;dashed=1;endSize=8;edgeStyle=elbowEdgeStyle;elbow=vertical;curved=0;rounded=0;" parent="1" edge="1">
                    <mxGeometry relative="1" as="geometry">
                        <mxPoint x="355" y="389.86" as="targetPoint"/>
                        <Array as="points"/>
                        <mxPoint x="250" y="389.86" as="sourcePoint"/>
                        <mxPoint as="offset"/>
                    </mxGeometry>
                </mxCell>
                <mxCell id="gwQ6n7CEZV3wdCFvcfVw-51" value="&lt;font&gt;fetch&lt;br&gt;Weather&lt;br&gt;(City)&lt;/font&gt;" style="html=1;verticalAlign=bottom;endArrow=block;edgeStyle=elbowEdgeStyle;elbow=vertical;curved=0;rounded=0;" parent="1" edge="1">
                    <mxGeometry x="-0.08" relative="1" as="geometry">
                        <mxPoint x="734" y="419.99999999999983" as="sourcePoint"/>
                        <Array as="points">
                            <mxPoint x="744" y="419.99999999999983"/>
                        </Array>
                        <mxPoint x="834" y="419.99999999999983" as="targetPoint"/>
                        <mxPoint as="offset"/>
                    </mxGeometry>
                </mxCell>
                <mxCell id="gwQ6n7CEZV3wdCFvcfVw-52" value="fetch&lt;br&gt;Weather&lt;br&gt;(City):&lt;div&gt;output&lt;/div&gt;" style="html=1;verticalAlign=bottom;endArrow=none;edgeStyle=elbowEdgeStyle;elbow=vertical;curved=0;rounded=0;dashed=1;startArrow=open;startFill=0;endFill=0;" parent="1" edge="1">
                    <mxGeometry relative="1" as="geometry">
                        <mxPoint x="734" y="520" as="sourcePoint"/>
                        <Array as="points">
                            <mxPoint x="739" y="520"/>
                        </Array>
                        <mxPoint x="834" y="520" as="targetPoint"/>
                    </mxGeometry>
                </mxCell>
                <mxCell id="gwQ6n7CEZV3wdCFvcfVw-53" value="digestMessage(City): answer" style="html=1;verticalAlign=bottom;endArrow=none;edgeStyle=elbowEdgeStyle;elbow=vertical;curved=0;rounded=0;startArrow=open;startFill=0;dashed=1;endFill=0;" parent="1" source="gwQ6n7CEZV3wdCFvcfVw-56" edge="1">
                    <mxGeometry relative="1" as="geometry">
                        <mxPoint x="500" y="530" as="sourcePoint"/>
                        <Array as="points"/>
                        <mxPoint x="724" y="530" as="targetPoint"/>
                    </mxGeometry>
                </mxCell>
                <mxCell id="gwQ6n7CEZV3wdCFvcfVw-47" value="callBot&lt;br&gt;(weatherbot, City)" style="html=1;verticalAlign=bottom;endArrow=block;edgeStyle=elbowEdgeStyle;elbow=vertical;curved=0;rounded=0;" parent="1" edge="1">
                    <mxGeometry relative="1" as="geometry">
                        <mxPoint x="365" y="400" as="sourcePoint"/>
                        <Array as="points">
                            <mxPoint x="375" y="400"/>
                        </Array>
                        <mxPoint x="475" y="400" as="targetPoint"/>
                    </mxGeometry>
                </mxCell>
                <mxCell id="gwQ6n7CEZV3wdCFvcfVw-49" value="digestMessage(City)" style="html=1;verticalAlign=bottom;endArrow=block;edgeStyle=elbowEdgeStyle;elbow=vertical;curved=0;rounded=0;" parent="1" source="gwQ6n7CEZV3wdCFvcfVw-56" target="gwQ6n7CEZV3wdCFvcfVw-15" edge="1">
                    <mxGeometry relative="1" as="geometry">
                        <mxPoint x="490" y="410" as="sourcePoint"/>
                        <Array as="points">
                            <mxPoint x="495" y="410"/>
                        </Array>
                        <mxPoint x="720" y="410" as="targetPoint"/>
                    </mxGeometry>
                </mxCell>
                <mxCell id="gwQ6n7CEZV3wdCFvcfVw-54" value="callBot&lt;br&gt;(weatherbot, &lt;br&gt;City):&amp;nbsp;&lt;br&gt;output" style="html=1;verticalAlign=bottom;endArrow=none;edgeStyle=elbowEdgeStyle;elbow=vertical;curved=0;rounded=0;dashed=1;startArrow=open;startFill=0;endFill=0;" parent="1" target="gwQ6n7CEZV3wdCFvcfVw-56" edge="1">
                    <mxGeometry relative="1" as="geometry">
                        <mxPoint x="365" y="540" as="sourcePoint"/>
                        <Array as="points">
                            <mxPoint x="375" y="540"/>
                        </Array>
                        <mxPoint x="470" y="540" as="targetPoint"/>
                    </mxGeometry>
                </mxCell>
                <mxCell id="gwQ6n7CEZV3wdCFvcfVw-61" value="getUserInput: &lt;br&gt;&quot;deactivate bot&quot;" style="html=1;verticalAlign=bottom;endArrow=open;dashed=1;endSize=8;edgeStyle=elbowEdgeStyle;elbow=vertical;curved=0;rounded=0;" parent="1" edge="1">
                    <mxGeometry x="0.2308" relative="1" as="geometry">
                        <mxPoint x="235" y="600" as="targetPoint"/>
                        <Array as="points">
                            <mxPoint x="149" y="600"/>
                        </Array>
                        <mxPoint x="189" y="600" as="sourcePoint"/>
                        <mxPoint as="offset"/>
                    </mxGeometry>
                </mxCell>
                <mxCell id="gwQ6n7CEZV3wdCFvcfVw-62" value="getUserInput: &lt;br&gt;&quot;deactivate bot&quot;" style="html=1;verticalAlign=bottom;endArrow=open;dashed=1;endSize=8;edgeStyle=elbowEdgeStyle;elbow=vertical;curved=0;rounded=0;" parent="1" edge="1">
                    <mxGeometry relative="1" as="geometry">
                        <mxPoint x="355" y="620" as="targetPoint"/>
                        <Array as="points"/>
                        <mxPoint x="245" y="620" as="sourcePoint"/>
                        <mxPoint as="offset"/>
                    </mxGeometry>
                </mxCell>
                <mxCell id="gwQ6n7CEZV3wdCFvcfVw-63" value="deactivateBot(bot)" style="html=1;verticalAlign=bottom;endArrow=block;edgeStyle=elbowEdgeStyle;elbow=vertical;curved=0;rounded=0;" parent="1" target="gwQ6n7CEZV3wdCFvcfVw-67" edge="1">
                    <mxGeometry relative="1" as="geometry">
                        <mxPoint x="370" y="634.66" as="sourcePoint"/>
                        <Array as="points">
                            <mxPoint x="364" y="634.66"/>
                        </Array>
                        <mxPoint x="509" y="634.66" as="targetPoint"/>
                    </mxGeometry>
                </mxCell>
                <mxCell id="gwQ6n7CEZV3wdCFvcfVw-64" value="" style="shape=umlDestroy;whiteSpace=wrap;html=1;strokeWidth=3;targetShapes=umlLifeline;" parent="1" vertex="1">
                    <mxGeometry x="714" y="630" width="30" height="30" as="geometry"/>
                </mxCell>
                <mxCell id="gwQ6n7CEZV3wdCFvcfVw-65" value="deactivateBot(wikibot)" style="html=1;verticalAlign=bottom;endArrow=none;edgeStyle=elbowEdgeStyle;elbow=vertical;curved=0;rounded=0;dashed=1;endFill=0;" parent="1" edge="1">
                    <mxGeometry x="-0.0006" relative="1" as="geometry">
                        <mxPoint x="485" y="644.7099999999998" as="sourcePoint"/>
                        <Array as="points">
                            <mxPoint x="510" y="644.7099999999998"/>
                            <mxPoint x="920" y="659.4599999999998"/>
                        </Array>
                        <mxPoint x="730" y="644.7099999999999" as="targetPoint"/>
                        <mxPoint as="offset"/>
                    </mxGeometry>
                </mxCell>
                <mxCell id="gwQ6n7CEZV3wdCFvcfVw-67" value="" style="html=1;points=[];perimeter=orthogonalPerimeter;outlineConnect=0;targetShapes=umlLifeline;portConstraint=eastwest;newEdgeStyle={&quot;edgeStyle&quot;:&quot;elbowEdgeStyle&quot;,&quot;elbow&quot;:&quot;vertical&quot;,&quot;curved&quot;:0,&quot;rounded&quot;:0};" parent="1" vertex="1">
                    <mxGeometry x="475" y="630" width="10" height="60" as="geometry"/>
                </mxCell>
                <mxCell id="gwQ6n7CEZV3wdCFvcfVw-66" value="deactivateBot(bot): &lt;br&gt;output" style="html=1;verticalAlign=bottom;endArrow=none;edgeStyle=elbowEdgeStyle;elbow=vertical;curved=0;rounded=0;dashed=1;startArrow=open;startFill=0;endFill=0;" parent="1" target="gwQ6n7CEZV3wdCFvcfVw-67" edge="1">
                    <mxGeometry relative="1" as="geometry">
                        <mxPoint x="365" y="680" as="sourcePoint"/>
                        <Array as="points">
                            <mxPoint x="470" y="680"/>
                        </Array>
                        <mxPoint x="465" y="680.0000000000001" as="targetPoint"/>
                    </mxGeometry>
                </mxCell>
            </root>
        </mxGraphModel>
    </diagram>
</mxfile>